<mxfile host="65bd71144e">
    <diagram id="BLQ3c-IyuzTMChMhd9xE" name="Page-1">
        <mxGraphModel dx="793" dy="606" grid="1" gridSize="10" guides="1" tooltips="1" connect="1" arrows="1" fold="1" page="1" pageScale="1" pageWidth="850" pageHeight="1100" math="0" shadow="0">
            <root>
                <mxCell id="0"/>
                <mxCell id="1" parent="0"/>
                <mxCell id="2" value="&lt;b&gt;1. Adaptive Data Processing Layer&lt;/b&gt;" style="rounded=1;whiteSpace=wrap;html=1;arcSize=12;fillColor=#dae8fc;strokeColor=#6c8ebf;align=center;verticalAlign=top;" vertex="1" parent="1">
                    <mxGeometry x="45" y="20" width="760" height="120" as="geometry"/>
                </mxCell>
                <mxCell id="3" value="Wavelet Denoising" style="rounded=1;whiteSpace=wrap;html=1;fillColor=#fff2cc;strokeColor=#d6b656;" vertex="1" parent="2">
                    <mxGeometry x="20" y="60" width="160" height="60" as="geometry"/>
                </mxCell>
                <mxCell id="4" value="Contextual Matrix Factorization" style="rounded=1;whiteSpace=wrap;html=1;fillColor=#fff2cc;strokeColor=#d6b656;" vertex="1" parent="2">
                    <mxGeometry x="285" y="60" width="180" height="60" as="geometry"/>
                </mxCell>
                <mxCell id="5" value="Hybrid Feature Extraction" style="rounded=1;whiteSpace=wrap;html=1;fillColor=#fff2cc;strokeColor=#d6b656;" vertex="1" parent="2">
                    <mxGeometry x="515" y="60" width="160" height="60" as="geometry"/>
                </mxCell>
                <mxCell id="6" value="&lt;b&gt;2. Multi-scale Forecasting Engine&lt;/b&gt;" style="rounded=1;whiteSpace=wrap;html=1;arcSize=12;fillColor=#d5e8d4;strokeColor=#82b366;verticalAlign=top;" vertex="1" parent="1">
                    <mxGeometry x="40" y="200" width="760" height="140" as="geometry"/>
                </mxCell>
                <mxCell id="7" value="SARIMA Module" style="shape=cylinder3;whiteSpace=wrap;html=1;fillColor=#f8cecc;strokeColor=#b85450;" vertex="1" parent="6">
                    <mxGeometry x="60" y="30" width="120" height="80" as="geometry"/>
                </mxCell>
                <mxCell id="8" value="Gradient Boosting" style="shape=process;whiteSpace=wrap;html=1;fillColor=#f8cecc;strokeColor=#b85450;" vertex="1" parent="6">
                    <mxGeometry x="260" y="30" width="120" height="80" as="geometry"/>
                </mxCell>
                <mxCell id="9" value="Attention-LSTM" style="shape=hexagon;whiteSpace=wrap;html=1;fillColor=#f8cecc;strokeColor=#b85450;" vertex="1" parent="6">
                    <mxGeometry x="460" y="30" width="120" height="80" as="geometry"/>
                </mxCell>
                <mxCell id="10" value="&lt;b&gt;3. Contextual Anomaly Detection&lt;/b&gt;" style="rounded=1;whiteSpace=wrap;html=1;arcSize=12;fillColor=#ffe6cc;strokeColor=#d79b00;verticalAlign=top;" vertex="1" parent="1">
                    <mxGeometry x="40" y="380" width="760" height="140" as="geometry"/>
                </mxCell>
                <mxCell id="11" value="Isolation Forest" style="shape=parallelogram;whiteSpace=wrap;html=1;fillColor=#f5f5f5;strokeColor=#666666;" vertex="1" parent="10">
                    <mxGeometry x="60" y="30" width="100" height="60" as="geometry"/>
                </mxCell>
                <mxCell id="12" value="Autoencoder" style="shape=ellipse;whiteSpace=wrap;html=1;fillColor=#f5f5f5;strokeColor=#666666;" vertex="1" parent="10">
                    <mxGeometry x="220" y="20" width="120" height="80" as="geometry"/>
                </mxCell>
                <mxCell id="13" value="Domain Rules" style="shape=document;whiteSpace=wrap;html=1;fillColor=#f5f5f5;strokeColor=#666666;" vertex="1" parent="10">
                    <mxGeometry x="400" y="30" width="100" height="60" as="geometry"/>
                </mxCell>
                <mxCell id="14" value="&lt;b&gt;4. Active Learning Component&lt;/b&gt;" style="rounded=1;whiteSpace=wrap;html=1;arcSize=12;fillColor=#e1d5e7;strokeColor=#9673a6;" vertex="1" parent="1">
                    <mxGeometry x="40" y="560" width="760" height="80" as="geometry"/>
                </mxCell>
                <mxCell id="15" value="&lt;b&gt;5. Explainable Decision Support&lt;/b&gt;" style="rounded=1;whiteSpace=wrap;html=1;arcSize=12;fillColor=#f8f8f8;strokeColor=#666666;" vertex="1" parent="1">
                    <mxGeometry x="40" y="680" width="760" height="80" as="geometry"/>
                </mxCell>
                <mxCell id="16" style="edgeStyle=orthogonalEdgeStyle;rounded=0;html=1;exitX=0.5;exitY=1;exitDx=0;exitDy=0;entryX=0.5;entryY=0;entryDx=0;entryDy=0;" edge="1" parent="1" source="2" target="6">
                    <mxGeometry relative="1" as="geometry"/>
                </mxCell>
                <mxCell id="17" style="edgeStyle=orthogonalEdgeStyle;rounded=0;html=1;exitX=0.5;exitY=1;exitDx=0;exitDy=0;entryX=0.5;entryY=0;entryDx=0;entryDy=0;" edge="1" parent="1" source="6" target="10">
                    <mxGeometry relative="1" as="geometry"/>
                </mxCell>
                <mxCell id="18" style="edgeStyle=orthogonalEdgeStyle;rounded=0;html=1;exitX=0.5;exitY=1;exitDx=0;exitDy=0;entryX=0.5;entryY=0;entryDx=0;entryDy=0;" edge="1" parent="1" source="10" target="14">
                    <mxGeometry relative="1" as="geometry"/>
                </mxCell>
                <mxCell id="19" style="edgeStyle=orthogonalEdgeStyle;rounded=0;html=1;exitX=0.5;exitY=1;exitDx=0;exitDy=0;entryX=0.5;entryY=0;entryDx=0;entryDy=0;" edge="1" parent="1" source="14" target="15">
                    <mxGeometry relative="1" as="geometry"/>
                </mxCell>
                <mxCell id="20" style="edgeStyle=orthogonalEdgeStyle;rounded=0;html=1;dashed=1;exitX=0.25;exitY=1;exitDx=0;exitDy=0;entryX=0.25;entryY=0;entryDx=0;entryDy=0;" edge="1" parent="1" source="14" target="2">
                    <mxGeometry relative="1" as="geometry"/>
                </mxCell>
                <mxCell id="21" style="edgeStyle=orthogonalEdgeStyle;rounded=0;html=1;dashed=1;exitX=0.75;exitY=1;exitDx=0;exitDy=0;entryX=0.75;entryY=0;entryDx=0;entryDy=0;" edge="1" parent="1" source="14" target="6">
                    <mxGeometry relative="1" as="geometry"/>
                </mxCell>
            </root>
        </mxGraphModel>
    </diagram>
</mxfile>